{"title":"The Twilight Saga, Breaking Dawn 1 DVDrip English Klam","uid":7040117,"size":1659048382,"categoryP":"video","categoryS":"movies","magnet":"?xt=urn:btih:c3c36b2400423cb28f47b2c8b5d9d067b5300ef8&amp;dn=The+Twilight+Saga%2C+Breaking+Dawn+1+DVDrip+English+Klam&amp;tr=udp%3A%2F%2Ftracker.openbittorrent.com%3A80&amp;tr=udp%3A%2F%2Fopen.demonii.com%3A1337&amp;tr=udp%3A%2F%2Ftracker.coppersurfer.tk%3A6969&amp;tr=udp%3A%2F%2Fexodus.desync.com%3A6969","seeders":1,"leechers":0,"uploader":"Klambake","files":-1,"time":1329509111,"description":"With: Kristen Stewart, Robert Pattinson and Taylor Lautner\n\nNa de bruiloft gaan Bella en Edward op huwelijksreis naar Rio De Janeiro, waar Bella tot haar schrik ontdekt zwanger te zijn. De familie van Edward is in shock door de situatie, die de fragiele band tussen de vampieren en weerwolven nog meer spanning bezorgt. Niemand weet wat te verwachten van deze onwaarschijnlijke zwangerschap. Ondertussen blijft ook de dreiging van de Volturi bestaan.\n\nThe Quileutes close in on expecting parents Edward and Bella, whose unborn child poses a threat to the Wolf Pack and the towns people of Forks.\n\n------------------------ Dutch Friends ------------------------\n---------------------------------------------------------------\n- Bezoek ook eens mijn vrienden op: &lt;a href=&quot; http://www.Film-Test.nl&quot; rel=&quot;nofollow&quot; target=&quot;_NEW&quot;&gt; http://www.Film-Test.nl&lt;/a&gt; --\n----- voor mijn Nederlandse Sync. ondertitels ---- en meer ----\n------- http://www.Film-Test.nl ---- voor Films en meer -------\n---------------------------------------------------------------\n\nGeneral:\n\nComplete name                    : The Twilight Saga\\\\The Twilight Saga, Breaking Dawn 1.avi\nFormat                           : AVI\nFormat/Info                      : Audio Video Interleave\nFile size                        : 1.54 GiB\nDuration                         : 1h 57mn\nOverall bit rate                 : 1 888 Kbps\n\nVideo:\n\nFormat                           : MPEG-4 Visual\nFormat profile                   : Simple@L3\nFormat settings, BVOP            : No\nFormat settings, QPel            : No\nFormat settings, GMC             : No warppoints\nFormat settings, Matrix          : Default (H.263)\nCodec ID                         : XVID\nCodec ID/Hint                    : XviD\nDuration                         : 1h 57mn\nBit rate                         : 1 429 Kbps\nWidth                            : 720 pixels\nHeight                           : 304 pixels\nDisplay aspect ratio             : 2.35:1\nFrame rate                       : 23.976 fps\nColor space                      : YUV\nChroma subsampling               : 4:2:0\nBit depth                        : 8 bits\nScan type                        : Progressive\nCompression mode                 : Lossy\nBits/(Pixel*Frame)               : 0.272\nStream size                      : 1.17 GiB (76%)\nWriting library                  : XviD 1.1.2 (UTC 2006-11-01)\n\nAudio:\n\nFormat                           : AC-3\nFormat/Info                      : Audio Coding 3\nMode extension                   : CM (complete main)\nCodec ID                         : 2000\nDuration                         : 1h 57mn\nBit rate mode                    : Constant\nBit rate                         : 448 Kbps\nChannel(s)                       : 6 channels\nChannel positions                : Front: L C R, Side: L R, LFE\nSampling rate                    : 48.0 KHz\nBit depth                        : 16 bits\nCompression mode                 : Lossy\nStream size                      : 375 MiB (24%)\nAlignment                        : Aligned on interleaves\nInterleave, duration             : 32 ms (0.77 video frame)\n","torrent":{"xt":"urn:btih:c3c36b2400423cb28f47b2c8b5d9d067b5300ef8","amp;dn":"The+Twilight+Saga%2C+Breaking+Dawn+1+DVDrip+English+Klam","amp;tr":["udp%3A%2F%2Ftracker.openbittorrent.com%3A80","udp%3A%2F%2Fopen.demonii.com%3A1337","udp%3A%2F%2Ftracker.coppersurfer.tk%3A6969","udp%3A%2F%2Fexodus.desync.com%3A6969"],"infoHash":"c3c36b2400423cb28f47b2c8b5d9d067b5300ef8","infoHashBuffer":{"type":"Buffer","data":[195,195,107,36,0,66,60,178,143,71,178,200,181,217,208,103,181,48,14,248]},"announce":[],"urlList":[]}}